<svg width="40" height="34" viewBox="0 0 40 34" fill="none" xmlns="http://www.w3.org/2000/svg">
<path fill-rule="evenodd" clip-rule="evenodd" d="M13 0C5.8203 0 0 5.8203 0 13V20.7255C0 27.9052 5.82031 33.7255 13 33.7255H26.2157C33.3954 33.7255 39.2157 27.9052 39.2157 20.7255V13C39.2157 5.8203 33.3954 0 26.2157 0H13ZM13.7902 7.73324C13.8986 7.7905 13.9935 7.87017 14.0688 7.96696L16.3553 10.9073C16.4355 11.0107 16.4911 11.1309 16.5181 11.259C16.545 11.387 16.5425 11.5195 16.5107 11.6465L15.8123 14.4377C15.7194 14.8103 15.7245 15.2007 15.8272 15.5708C15.93 15.9409 16.1268 16.2781 16.3986 16.5495L19.5288 19.681C19.8003 19.9525 20.1376 20.1491 20.5077 20.2516C20.8778 20.3542 21.2681 20.3591 21.6407 20.266L24.4318 19.5688C24.5588 19.5371 24.6913 19.5346 24.8193 19.5615C24.9474 19.5885 25.0677 19.6441 25.1711 19.7243L28.1113 22.0108C28.2081 22.086 28.2878 22.181 28.3451 22.2894C28.4023 22.3978 28.4359 22.5171 28.4435 22.6395C28.4511 22.7618 28.4325 22.8844 28.3891 22.9991C28.3457 23.1137 28.2784 23.2178 28.1916 23.3044L26.8738 24.6223C26.2569 25.2379 25.3839 25.4647 24.6179 25.1958C21.4475 24.0796 18.569 22.264 16.1959 19.8836C13.8155 17.5106 11.9999 14.6321 10.8838 11.4617C10.6149 10.6957 10.8417 9.82265 11.4573 9.20578L12.7752 7.88666C12.8618 7.79993 12.9659 7.73261 13.0805 7.6892C13.1952 7.64578 13.3177 7.62725 13.4401 7.63485C13.5624 7.64244 13.6818 7.67598 13.7902 7.73324ZM12.5989 6.41787C12.3039 6.52948 12.0359 6.70258 11.8129 6.92568H11.8142L10.4963 8.24353C9.55319 9.18666 9.13898 10.5975 9.60035 11.9103C10.7839 15.273 12.7093 18.3262 15.2337 20.8433C17.7512 23.3679 20.8048 25.2933 24.168 26.4767C25.482 26.9393 26.8916 26.5251 27.8348 25.582L29.1526 24.2641C30.0983 23.3197 30.0014 21.7584 28.9449 20.9364L26.0059 18.6499C25.7397 18.4431 25.4299 18.2994 25.1 18.2299C24.7702 18.1603 24.4288 18.1667 24.1017 18.2484L21.3118 18.9456C21.1671 18.9819 21.0154 18.98 20.8716 18.9403C20.7277 18.9005 20.5966 18.8242 20.491 18.7187L17.3596 15.5873C17.2543 15.4818 17.1781 15.3509 17.1384 15.2073C17.0986 15.0637 17.0967 14.9123 17.1327 14.7677L17.8299 11.9766C17.9956 11.3138 17.8477 10.6116 17.4284 10.0724L15.1419 7.13343C14.9484 6.88433 14.704 6.67925 14.4251 6.53183C14.1462 6.3844 13.8391 6.298 13.5243 6.27835C13.2094 6.2587 12.894 6.30626 12.5989 6.41787Z" fill="#376300"/>
</svg>
